# xmcd
#
# Track frame offsets: 
#        150
#        13716
#        26788
#        42169
#        61315
#        78616
#        91416
#        110182
#        125400
#        142031
#        152376
#        166939
#        178774
#        186399
#        192024
#        198576
#        202776
#        209770
#        216246
#        219863
#        226787
#        232214
#        239340
#        244199
#        249717
#
# Disc length: 3378 seconds
#
# Revision: 0
# Processed by: cddbd v1.5.2PL0 Copyright (c) Steve Scherf et al.
# Submitted via: ExactAudioCopy v0.99pb4
#
DISCID=700d3019
DTITLE=John Garcia and David Barrett - Blues Guitar Play-Along Trax
DYEAR=2006
DGENRE=Blues-Playalong
TTITLE0=Travelin' Man Blues - E 
TTITLE1=Muddy's Shuffle - G
TTITLE2=In the Box - G
TTITLE3=Minor Problem - Cm
TTITLE4=Uptown Jump - F
TTITLE5=Charlie's Swing - Bb
TTITLE6=Major Problem - G
TTITLE7=Good Mojo - E
TTITLE8=Mr. Rumba - A
TTITLE9=The Key - G
TTITLE10=Boogie - A
TTITLE11=The Tramp - C
TTITLE12=Welcome
TTITLE13=Travelin' Man Blues Playing Example
TTITLE14=Muddy's Shuffle Playing Example
TTITLE15=In the Box Playing Example
TTITLE16=Minor Problem Playing Example
TTITLE17=Uptown Jump Playing Example
TTITLE18=Charlie's swing Playing Example
TTITLE19=Major Problem Playing Example
TTITLE20=Good Mojo Playing Example
TTITLE21=Mr. Rumba Playing Example
TTITLE22=The Key Playing Example
TTITLE23=Boogie Playing Example
TTITLE24=The Tramp Playing Example
EXTD=
EXTT0=
EXTT1=
EXTT2=
EXTT3=
EXTT4=
EXTT5=
EXTT6=
EXTT7=
EXTT8=
EXTT9=
EXTT10=
EXTT11=
EXTT12=
EXTT13=
EXTT14=
EXTT15=
EXTT16=
EXTT17=
EXTT18=
EXTT19=
EXTT20=
EXTT21=
EXTT22=
EXTT23=
EXTT24=
PLAYORDER=
